<svg version="1.1" id="Layer_1" xmlns="http://www.w3.org/2000/svg" xmlns:xlink="http://www.w3.org/1999/xlink" x="0px" y="0px"
	 viewBox="0 0 65.1 14.7" style="enable-background:new 0 0 65.1 14.7;" xml:space="preserve">
<style type="text/css">
	.st0{fill:none;}
	.st1{clip-path:url(#SVGID_2_);fill:#FFFFFF;}
	.st2{clip-path:url(#SVGID_4_);fill:#FFFFFF;}
	.st3{fill:#FFFFFF;}
</style>
<path class="st0" d="M-15-4.3"/>
<g>
	<g>
		<defs>
			<rect id="SVGID_1_" x="3" y="1.2" width="68.3" height="14.2"/>
		</defs>
		<clipPath id="SVGID_2_">
			<use xlink:href="#SVGID_1_"  style="overflow:visible;"/>
		</clipPath>
		<path class="st1" d="M50,7.7h-1.6v5.8H50V7.7z M46.3,11.7c0,0.7-0.4,0.8-0.8,0.8c-0.4,0-0.5-0.2-0.5-0.4c0-0.4,0.4-0.5,1.3-0.6
			V11.7z M46.3,10.8c-1.8,0.1-2.8,0.5-2.8,1.5c0,0.8,0.7,1.3,1.5,1.3c0.6,0,1.1-0.2,1.5-0.7v0.6H48c0-0.4-0.1-0.9-0.1-1.3v-0.4V11
			c0-1.4-0.9-1.9-2.1-1.9c-1.4,0-2.1,0.8-2.2,1.6H45c0.1-0.4,0.3-0.5,0.7-0.5C46,10.2,46.3,10.3,46.3,10.8
			C46.3,10.8,46.3,10.8,46.3,10.8z M40.3,9.2h-1.6v4.3h1.6v-2.2c0-0.6,0.3-0.9,0.6-0.9c0.5,0,0.5,0.4,0.5,0.7v2.4H43v-2.7
			c0-1-0.4-1.7-1.4-1.7c-0.6,0-1,0.2-1.3,0.7C40.3,9.8,40.3,9.2,40.3,9.2z M36.1,13.6c1.3,0,2.4-0.7,2.4-2.3c0-1.5-1.1-2.3-2.4-2.3
			c-1.3,0-2.4,0.8-2.4,2.3C33.7,12.9,34.8,13.6,36.1,13.6 M36.1,10.3c0.4,0,0.7,0.3,0.7,1.1s-0.3,1.1-0.7,1.1s-0.7-0.3-0.7-1.1
			S35.7,10.3,36.1,10.3 M31.9,8.9h1.6V7.7h-1.6V8.9z M31.9,13.5h1.6V9.2h-1.6V13.5z M28.9,9.2H28v1h0.9v2c0,1.2,0.4,1.3,1.6,1.3h1.1
			v-1.1h-0.8c-0.2,0-0.3,0-0.3-0.3v-1.9h1.1v-1h-1.1V8h-1.6C28.9,8,28.9,9.2,28.9,9.2z M26.5,11.7c0,0.7-0.4,0.8-0.8,0.8
			s-0.5-0.2-0.5-0.4c0-0.4,0.4-0.5,1.3-0.6V11.7z M26.5,10.8c-1.8,0.1-2.8,0.5-2.8,1.5c0,0.8,0.7,1.3,1.5,1.3c0.6,0,1.1-0.2,1.5-0.7
			v0.6h1.5c0-0.4-0.1-0.9-0.1-1.3v-0.4V11c0-1.4-0.9-1.9-2.1-1.9c-1.4,0-2.1,0.8-2.2,1.6h1.4c0.1-0.4,0.3-0.5,0.7-0.5
			C26.2,10.2,26.5,10.3,26.5,10.8L26.5,10.8z M23.3,13.5V7.7h-1.5v3.7L20,7.7h-2v5.8h1.5V9.8l1.8,3.7H23.3z"/>
	</g>
	<g>
		<defs>
			<rect id="SVGID_3_" x="3" y="1.2" width="68.3" height="14.2"/>
		</defs>
		<clipPath id="SVGID_4_">
			<use xlink:href="#SVGID_3_"  style="overflow:visible;"/>
		</clipPath>
		<path class="st2" d="M28.7,3.6c0.3,0,0.8,0.2,0.8,0.7h-1.7C28,3.8,28.4,3.6,28.7,3.6 M28.7,7.1c1.3,0,2.1-0.9,2.2-1.6h-1.5
			c-0.1,0.2-0.4,0.4-0.7,0.4c-0.5,0-0.8-0.3-0.9-0.7h3.1c0.1-1.5-0.8-2.7-2.3-2.7c-1.3,0-2.3,0.9-2.3,2.2
			C26.3,6.1,27.2,7.1,28.7,7.1 M23.2,1.2h-1.6V7h1.6V4.7c0-0.6,0.3-0.9,0.6-0.9c0.5,0,0.5,0.4,0.5,0.7V7H26V4.3c0-1-0.4-1.7-1.4-1.7
			c-0.6,0-1,0.2-1.3,0.7V1.2H23.2z M17.9,7h1.7V2.6h1.7V1.2h-5.1v1.4h1.7C17.9,2.6,17.9,7,17.9,7z"/>
	</g>
</g>
<path class="st3" d="M3,1.2v12.3h3.5v-1.9H4.9V3.1h1.5V1.2H3z M11.9,1.2v1.9h1.5v8.5h-1.5v1.9h3.5V1.2H11.9z"/>
<path class="st3" d="M7.2,13.5H11v-2.3L7.2,7.4V13.5z M7.2,1.2v2.3L11,7.3V1.2H7.2z"/>
</svg>
